<?xml version="1.0" standalone="no"?>
<!DOCTYPE svg PUBLIC "-//W3C//DTD SVG 20010904//EN"
 "http://www.w3.org/TR/2001/REC-SVG-20010904/DTD/svg10.dtd">
<svg version="1.0" xmlns="http://www.w3.org/2000/svg"
 width="1000.000000pt" height="1000.000000pt" viewBox="0 0 1000.000000 1000.000000"
 preserveAspectRatio="xMidYMid meet">
<metadata>
Created by potrace 1.11, written by Peter Selinger 2001-2013
</metadata>
<g transform="translate(0.000000,1000.000000) scale(0.100000,-0.100000)"
fill="#000000" stroke="none">
<path d="M10 5000 l0 -5000 4995 0 4995 0 0 5000 0 5000 -4995 0 -4995 0 0
-5000z m7829 3299 c195 -50 370 -178 468 -341 53 -87 779 -1943 799 -2040 31
-153 2 -326 -81 -473 -67 -120 -211 -253 -331 -306 -71 -32 -1978 -717 -2047
-736 -101 -27 -279 -22 -392 11 -211 64 -381 199 -470 376 -40 79 -762 1923
-776 1980 -7 30 -12 98 -12 150 1 264 153 509 392 633 56 30 1905 702 2045
744 121 36 268 37 405 2z m-3546 -1913 c217 -42 417 -125 552 -229 201 -154
325 -401 342 -682 22 -374 -178 -753 -515 -973 -90 -59 -229 -123 -307 -143
-25 -6 -45 -17 -45 -23 0 -17 188 -324 307 -501 166 -249 377 -525 561 -735
222 -253 403 -369 635 -405 l38 -6 -3 -77 -3 -77 -70 -19 c-95 -25 -327 -26
-440 -2 -212 46 -383 135 -519 270 -205 203 -605 782 -921 1334 -48 85 -93
155 -99 157 -6 2 -116 5 -243 7 l-233 4 0 -600 c1 -636 5 -708 48 -792 54
-105 147 -142 422 -169 106 -10 100 -5 100 -101 l0 -85 -122 7 c-165 11 -1087
11 -1265 1 l-143 -8 0 85 c0 81 1 86 23 90 12 3 63 12 112 21 224 39 288 87
332 245 17 61 18 152 18 1490 0 1534 2 1476 -52 1583 -27 54 -83 99 -151 121
-35 12 -257 56 -279 56 -2 0 -3 39 -3 86 l0 86 248 -6 c136 -3 382 -2 547 3
483 14 1022 8 1128 -13z"/>
<path d="M6965 7249 c-237 -31 -480 -153 -587 -294 -129 -169 -109 -419 45
-591 111 -123 274 -164 652 -164 272 0 382 -39 430 -152 33 -81 8 -177 -63
-239 -86 -76 -275 -137 -382 -124 -101 13 -138 41 -176 133 -15 37 -31 71 -34
75 -7 8 -258 -77 -273 -92 -12 -12 76 -224 111 -269 39 -48 121 -97 197 -117
82 -21 248 -19 360 4 223 46 428 168 524 311 62 93 83 160 83 260 -1 191 -101
361 -257 434 -106 50 -153 57 -460 66 -309 8 -351 15 -425 64 -70 46 -103 163
-66 233 17 34 82 95 123 116 69 36 173 59 248 55 94 -4 121 -23 154 -107 13
-33 30 -61 37 -61 10 0 261 88 271 95 2 1 -19 57 -47 126 -41 104 -56 130 -93
165 -26 23 -66 47 -96 57 -66 21 -186 28 -276 16z"/>
<path d="M3363 6133 l-33 -4 0 -783 0 -783 92 -7 c169 -12 480 -7 571 9 280
49 482 192 592 420 57 118 75 194 82 340 16 342 -113 593 -372 721 -165 81
-203 87 -575 90 -179 1 -340 0 -357 -3z"/>
</g>
</svg>
